<?xml version="1.0" encoding="UTF-8"?>
<svg width="21px" height="21px" viewBox="0 0 21 21" version="1.1" xmlns="http://www.w3.org/2000/svg" xmlns:xlink="http://www.w3.org/1999/xlink">
    <!-- Generator: Sketch 56.3 (81716) - https://sketch.com -->
    <title>Shape</title>
    <desc>Created with Sketch.</desc>
    <g id="Page-1" stroke="none" stroke-width="1" fill="none" fill-rule="evenodd">
        <g id="iconfinder_icon-x-circle_2867957" fill="#FFFFFF" fill-rule="nonzero">
            <path d="M3.93,18.07 C1.33043416,15.5592553 0.287874028,11.8412211 1.20302843,8.34492676 C2.11818284,4.84863244 4.84863244,2.11818284 8.34492676,1.20302843 C11.8412211,0.287874028 15.5592553,1.33043416 18.07,3.93 C21.8597221,7.85378887 21.8055237,14.0908478 17.9481858,17.9481858 C14.0908478,21.8055237 7.85378887,21.8597221 3.93,18.07 L3.93,18.07 Z M5.34,16.66 C8.46593168,19.7859317 13.5340683,19.7859317 16.66,16.66 C19.7859317,13.5340683 19.7859317,8.46593168 16.66,5.34 C13.5340683,2.21406832 8.46593168,2.21406832 5.34,5.34 C2.21406832,8.46593168 2.21406832,13.5340683 5.34,16.66 Z M12.41,11 L13.83,12.41 C14.0836586,12.6636586 14.1827235,13.033374 14.0898781,13.3798781 C13.9970326,13.7263821 13.7263821,13.9970326 13.3798781,14.0898781 C13.033374,14.1827235 12.6636586,14.0836586 12.41,13.83 L11,12.4 L9.59,13.82 C9.33634143,14.0736586 8.96662601,14.1727235 8.62012195,14.0798781 C8.27361789,13.9870326 8.00296741,13.7163821 7.91012193,13.3698781 C7.81727645,13.023374 7.91634141,12.6536586 8.17,12.4 L9.6,11 L8.18,9.59 C7.92634141,9.33634143 7.82727645,8.96662601 7.92012193,8.62012195 C8.01296741,8.27361789 8.28361789,8.00296741 8.63012195,7.91012193 C8.97662601,7.81727645 9.34634143,7.91634141 9.6,8.17 L11,9.6 L12.41,8.18 C12.6636586,7.92634141 13.033374,7.82727645 13.3798781,7.92012193 C13.7263821,8.01296741 13.9970326,8.28361789 14.0898781,8.63012195 C14.1827235,8.97662601 14.0836586,9.34634143 13.83,9.6 L12.4,11 L12.41,11 Z" id="Shape"></path>
        </g>
    </g>
</svg>